<svg width="24" height="24" viewBox="0 0 24 24" fill="none" xmlns="http://www.w3.org/2000/svg">
<path d="M7.95378 18.6V19.48C7.95378 20.4136 8.38008 21.3089 9.13889 21.969C9.89771 22.6291 10.9269 23 12 23C13.0731 23 14.1023 22.6291 14.8611 21.969C15.6199 21.3089 16.0462 20.4136 16.0462 19.48V18.6M2.92169 8.91996C2.92001 7.87628 3.1558 6.84264 3.61546 5.87861C4.07513 4.91459 4.74957 4.03924 5.59992 3.30303C6.45027 2.56681 7.45971 1.9843 8.57005 1.58906C9.68039 1.19382 10.8697 0.993672 12.0693 1.00015C17.0752 1.03253 21.0793 4.65231 21.0793 9.01938V9.79996C21.0793 13.7397 22.0268 16.0259 22.8613 17.2754C22.9512 17.4089 22.999 17.5607 23 17.7154C23.0009 17.8701 22.955 18.0223 22.8667 18.1567C22.7785 18.291 22.6511 18.4027 22.4973 18.4806C22.3436 18.5584 22.169 18.5996 21.9912 18.6H2.00884C1.83095 18.5996 1.65634 18.5584 1.50261 18.4805C1.34887 18.4027 1.22146 18.2909 1.13322 18.1566C1.04498 18.0222 0.999033 17.87 1.00002 17.7152C1.001 17.5605 1.04887 17.4087 1.13882 17.2752C1.97376 16.0256 2.92168 13.7395 2.92168 9.79996L2.92169 8.91996Z" stroke="#2A2A2A" stroke-width="1.5" stroke-linecap="round" stroke-linejoin="round"/>
</svg>
