<svg width="22" height="22" viewBox="0 0 22 22" fill="none" xmlns="http://www.w3.org/2000/svg">
<path d="M1 5.86307V1.66315C1 1.2969 1.29848 1 1.66667 1H8.11112C8.47931 1 8.77779 1.2969 8.77779 1.66315V5.86307C8.77779 6.22931 8.47931 6.52621 8.11112 6.52621H1.66667C1.29848 6.52621 1 6.22931 1 5.86307Z" stroke="#5A5A5A" stroke-width="2"/>
<path d="M13.2222 20.2312V16.0313C13.2222 15.665 13.5206 15.3681 13.8888 15.3681H20.3333C20.7015 15.3681 21 15.665 21 16.0313V20.2312C21 20.5975 20.7015 20.8944 20.3333 20.8944H13.8888C13.5206 20.8944 13.2222 20.5975 13.2222 20.2312Z" stroke="#5A5A5A" stroke-width="2"/>
<path d="M13.2222 11.3893V1.66315C13.2222 1.2969 13.5206 1 13.8888 1H20.3333C20.7015 1 21 1.2969 21 1.66315V11.3893C21 11.7556 20.7015 12.0524 20.3333 12.0524H13.8888C13.5206 12.0524 13.2222 11.7556 13.2222 11.3893Z" stroke="#5A5A5A" stroke-width="2"/>
<path d="M1 20.2312V10.5051C1 10.1388 1.29848 9.84193 1.66667 9.84193H8.11112C8.47931 9.84193 8.77779 10.1388 8.77779 10.5051V20.2312C8.77779 20.5975 8.47931 20.8944 8.11112 20.8944H1.66667C1.29848 20.8944 1 20.5975 1 20.2312Z" stroke="#5A5A5A" stroke-width="2"/>
</svg>
