<svg width="17" height="4" viewBox="0 0 17 4" fill="none" xmlns="http://www.w3.org/2000/svg">
<path d="M9.57132 2.12431C9.57132 1.53267 9.09154 1.05288 8.4999 1.05288C7.90825 1.05288 7.42847 1.53267 7.42847 2.12431C7.42847 2.71595 7.90825 3.19574 8.4999 3.19574C9.09154 3.19574 9.57132 2.71595 9.57132 2.12431Z" fill="#2A2A2A" stroke="#2A2A2A" stroke-linecap="round" stroke-linejoin="round"/>
<path d="M16 2.07142C16 1.47978 15.5202 0.999996 14.9286 0.999996C14.337 0.999996 13.8572 1.47978 13.8572 2.07142C13.8572 2.66307 14.337 3.14285 14.9286 3.14285C15.5202 3.14285 16 2.66307 16 2.07142Z" fill="#2A2A2A" stroke="#2A2A2A" stroke-linecap="round" stroke-linejoin="round"/>
<path d="M3.14286 2.07142C3.14286 1.47978 2.66316 0.999996 2.07143 0.999996C1.4797 0.999996 1 1.47978 1 2.07142C1 2.66307 1.4797 3.14285 2.07143 3.14285C2.66316 3.14285 3.14286 2.66307 3.14286 2.07142Z" fill="#2A2A2A" stroke="#2A2A2A" stroke-linecap="round" stroke-linejoin="round"/>
</svg>
