<svg width="17" height="17" viewBox="0 0 17 17" fill="none" xmlns="http://www.w3.org/2000/svg">
<mask id="path-1-inside-1_3_225" fill="white">
<path d="M8.47517 9.4901C10.9752 9.4901 12.9801 7.46039 12.9801 4.98515C12.9801 2.5099 10.9752 0.455444 8.47517 0.455444C5.97517 0.455444 3.97022 2.48515 3.97022 4.96039C3.97022 7.43564 5.97517 9.4901 8.47517 9.4901ZM8.47517 1.64356C10.3069 1.64356 11.792 3.12871 11.792 4.96039C11.792 6.79208 10.3069 8.27723 8.47517 8.27723C6.64348 8.27723 5.15834 6.81683 5.15834 4.98515C5.15834 3.15346 6.64348 1.64356 8.47517 1.64356ZM0.653385 16.5446H16.3465C16.6682 16.5446 16.9405 16.2723 16.9405 15.9505C16.9405 12.8317 14.391 10.2822 11.2722 10.2822H5.72764C2.60883 10.2822 0.0593262 12.8317 0.0593262 15.9505C0.0593262 16.2723 0.331603 16.5446 0.653385 16.5446ZM5.72764 11.4703H11.2722C13.5494 11.4703 15.4059 13.1535 15.7029 15.3564H1.29695C1.59398 13.1535 3.45042 11.4703 5.72764 11.4703Z"/>
</mask>
<path d="M8.47517 9.4901C10.9752 9.4901 12.9801 7.46039 12.9801 4.98515C12.9801 2.5099 10.9752 0.455444 8.47517 0.455444C5.97517 0.455444 3.97022 2.48515 3.97022 4.96039C3.97022 7.43564 5.97517 9.4901 8.47517 9.4901ZM8.47517 1.64356C10.3069 1.64356 11.792 3.12871 11.792 4.96039C11.792 6.79208 10.3069 8.27723 8.47517 8.27723C6.64348 8.27723 5.15834 6.81683 5.15834 4.98515C5.15834 3.15346 6.64348 1.64356 8.47517 1.64356ZM0.653385 16.5446H16.3465C16.6682 16.5446 16.9405 16.2723 16.9405 15.9505C16.9405 12.8317 14.391 10.2822 11.2722 10.2822H5.72764C2.60883 10.2822 0.0593262 12.8317 0.0593262 15.9505C0.0593262 16.2723 0.331603 16.5446 0.653385 16.5446ZM5.72764 11.4703H11.2722C13.5494 11.4703 15.4059 13.1535 15.7029 15.3564H1.29695C1.59398 13.1535 3.45042 11.4703 5.72764 11.4703Z" fill="black"/>
<path d="M15.7029 15.3564V18.3564H19.1345L18.676 14.9556L15.7029 15.3564ZM1.29695 15.3564L-1.67615 14.9556L-2.13469 18.3564H1.29695V15.3564ZM8.47517 12.4901C12.6427 12.4901 15.9801 9.1065 15.9801 4.98515H9.98012C9.98012 5.81428 9.30759 6.4901 8.47517 6.4901V12.4901ZM15.9801 4.98515C15.9801 0.885217 12.664 -2.54456 8.47517 -2.54456V3.45544C9.28632 3.45544 9.98012 4.13458 9.98012 4.98515H15.9801ZM8.47517 -2.54456C4.30759 -2.54456 0.970218 0.839038 0.970218 4.96039H6.97022C6.97022 4.13126 7.64275 3.45544 8.47517 3.45544V-2.54456ZM0.970218 4.96039C0.970218 9.06033 4.28632 12.4901 8.47517 12.4901V6.4901C7.66401 6.4901 6.97022 5.81096 6.97022 4.96039H0.970218ZM8.47517 4.64356C8.65 4.64356 8.792 4.78557 8.792 4.96039H14.792C14.792 1.47186 11.9637 -1.35644 8.47517 -1.35644V4.64356ZM8.792 4.96039C8.792 5.13522 8.65 5.27723 8.47517 5.27723V11.2772C11.9637 11.2772 14.792 8.44893 14.792 4.96039H8.792ZM8.47517 5.27723C8.27095 5.27723 8.15834 5.13074 8.15834 4.98515H2.15834C2.15834 8.50292 5.01602 11.2772 8.47517 11.2772V5.27723ZM8.15834 4.98515C8.15834 4.89369 8.19333 4.80731 8.26204 4.73789C8.32925 4.66999 8.40255 4.64356 8.47517 4.64356V-1.35644C4.9577 -1.35644 2.15834 1.52569 2.15834 4.98515H8.15834ZM0.653385 19.5446H16.3465V13.5446H0.653385V19.5446ZM16.3465 19.5446C18.3251 19.5446 19.9405 17.9291 19.9405 15.9505H13.9405C13.9405 14.6154 15.0114 13.5446 16.3465 13.5446V19.5446ZM19.9405 15.9505C19.9405 11.1748 16.0479 7.28218 11.2722 7.28218V13.2822C12.7342 13.2822 13.9405 14.4885 13.9405 15.9505H19.9405ZM11.2722 7.28218H5.72764V13.2822H11.2722V7.28218ZM5.72764 7.28218C0.951977 7.28218 -2.94067 11.1748 -2.94067 15.9505H3.05933C3.05933 14.4885 4.26568 13.2822 5.72764 13.2822V7.28218ZM-2.94067 15.9505C-2.94067 17.9291 -1.32525 19.5446 0.653385 19.5446V13.5446C1.98846 13.5446 3.05933 14.6154 3.05933 15.9505H-2.94067ZM5.72764 14.4703H11.2722V8.47029H5.72764V14.4703ZM11.2722 14.4703C12.0129 14.4703 12.6288 15.0082 12.7298 15.7573L18.676 14.9556C18.1829 11.2987 15.086 8.47029 11.2722 8.47029V14.4703ZM15.7029 12.3564H1.29695V18.3564H15.7029V12.3564ZM4.27005 15.7573C4.37105 15.0082 4.98697 14.4703 5.72764 14.4703V8.47029C1.91386 8.47029 -1.18309 11.2987 -1.67615 14.9556L4.27005 15.7573Z" fill="black" mask="url(#path-1-inside-1_3_225)"/>
</svg>
